<svg xmlns="http://www.w3.org/2000/svg" viewBox="0 0 48 60" x="0px" y="0px"><title>tenge_kazakhstani_commerce_KZT</title><path d="M29,20H19a1,1,0,0,0,0,2h4v9a1,1,0,0,0,2,0V22h4a1,1,0,0,0,0-2Z"/><path d="M29,18H19a1,1,0,0,1,0-2H29a1,1,0,0,1,0,2Z"/><path d="M24,46A22,22,0,1,1,46,24,22,22,0,0,1,24,46ZM24,4A20,20,0,1,0,44,24,20,20,0,0,0,24,4Z"/><text x="0" y="63" fill="#000000" font-size="5px" font-weight="bold" font-family="'Helvetica Neue', Helvetica, Arial-Unicode, Arial, Sans-serif">Created by P Thanga Vignesh</text><text x="0" y="68" fill="#000000" font-size="5px" font-weight="bold" font-family="'Helvetica Neue', Helvetica, Arial-Unicode, Arial, Sans-serif">from the Noun Project</text></svg>