<svg xmlns="http://www.w3.org/2000/svg" viewBox="0 0 48 60" x="0px" y="0px"><title>ruble_belarusian_exchange_BYN</title><path d="M19.8,31H18a2,2,0,0,1-2-2V19a2,2,0,0,1,2-2H19.8A4.16,4.16,0,0,1,24,20.82a4,4,0,0,1-1.11,2.95l-.24.23.24.23A4,4,0,0,1,24,27.18,4.16,4.16,0,0,1,19.8,31ZM18,25v4h1.8A2.14,2.14,0,0,0,22,27.09,2,2,0,0,0,20,25Zm0-2h2a2,2,0,0,0,2-2.09A2.14,2.14,0,0,0,19.8,19H18Z"/><path d="M31,21a4.92,4.92,0,0,0-3,1v0a1,1,0,0,0-2,0v8a1,1,0,0,0,2,0V26a3,3,0,0,1,3-3,1,1,0,0,0,0-2Z"/><path d="M24,46A22,22,0,1,1,46,24,22,22,0,0,1,24,46ZM24,4A20,20,0,1,0,44,24,20,20,0,0,0,24,4Z"/><text x="0" y="63" fill="#000000" font-size="5px" font-weight="bold" font-family="'Helvetica Neue', Helvetica, Arial-Unicode, Arial, Sans-serif">Created by P Thanga Vignesh</text><text x="0" y="68" fill="#000000" font-size="5px" font-weight="bold" font-family="'Helvetica Neue', Helvetica, Arial-Unicode, Arial, Sans-serif">from the Noun Project</text></svg>