<svg xmlns="http://www.w3.org/2000/svg" viewBox="0 0 512 640" x="0px" y="0px"><title>Artboard 1 copy 17</title><g data-name="18 Menu"><path d="M256,512A256,256,0,0,1,75,75,256,256,0,0,1,437,437,254.33,254.33,0,0,1,256,512Zm0-482C131.38,30,30,131.38,30,256S131.38,482,256,482,482,380.62,482,256,380.62,30,256,30Z"/><path d="M211.75,396.75a15,15,0,0,1-15-15V130.25a15,15,0,0,1,30,0v251.5A15,15,0,0,1,211.75,396.75Z"/><path d="M293.75,254.25h-130a15,15,0,0,1,0-30h130a39.5,39.5,0,0,0,0-79h-82a15,15,0,0,1,0-30h82a69.5,69.5,0,0,1,0,139Z"/><path d="M263.25,313.75h-99.5a15,15,0,0,1,0-30h99.5a15,15,0,0,1,0,30Z"/></g><text x="0" y="527" fill="#000000" font-size="5px" font-weight="bold" font-family="'Helvetica Neue', Helvetica, Arial-Unicode, Arial, Sans-serif">by Makhmudov Makhmud Mukhtarovich</text><text x="0" y="532" fill="#000000" font-size="5px" font-weight="bold" font-family="'Helvetica Neue', Helvetica, Arial-Unicode, Arial, Sans-serif">from the Noun Project</text></svg>